<svg width="80" height="16" viewBox="0 0 80 16" fill="none" xmlns="http://www.w3.org/2000/svg">
<path d="M7.99998 11.5134L12.12 14L11.0266 9.31337L14.6666 6.16004L9.87331 5.74671L7.99998 1.33337L6.12665 5.74671L1.33331 6.16004L4.96665 9.31337L3.87998 14L7.99998 11.5134Z" fill="#D50000"/>
<path d="M24 11.5134L28.12 14L27.0266 9.31337L30.6666 6.16004L25.8733 5.74671L24 1.33337L22.1266 5.74671L17.3333 6.16004L20.9666 9.31337L19.88 14L24 11.5134Z" fill="#D50000"/>
<path d="M40 11.5134L44.12 14L43.0266 9.31337L46.6666 6.16004L41.8733 5.74671L40 1.33337L38.1266 5.74671L33.3333 6.16004L36.9666 9.31337L35.88 14L40 11.5134Z" fill="#D50000"/>
<path d="M56 11.5134L60.12 14L59.0266 9.31337L62.6666 6.16004L57.8733 5.74671L56 1.33337L54.1266 5.74671L49.3333 6.16004L52.9666 9.31337L51.88 14L56 11.5134Z" fill="#D50000"/>
<path d="M72 11.5134L76.12 14L75.0266 9.31337L78.6666 6.16004L73.8733 5.74671L72 1.33337L70.1266 5.74671L65.3333 6.16004L68.9666 9.31337L67.88 14L72 11.5134Z" fill="#D50000"/>
</svg>
